<svg xmlns="http://www.w3.org/2000/svg" data-name="Layer 1" width="24" height="24"><rect id="backgroundrect" width="100%" height="100%" x="0" y="0" fill="none" stroke="none"/><g class="currentLayer" style=""><title>Layer 1</title><path d="M13.929,15H5v-2H15.93l-2,2Zm-8.929,4h5v-.071l1.929-1.929H5v2ZM24,5v5H2v12H10v2H0V5c0-1.654,1.346-3,3-3h3V0h2V2h8V0h2V2h3c1.654,0,3,1.346,3,3Zm-2,0c0-.551-.449-1-1-1H3c-.551,0-1,.449-1,1v3H22v-3Zm1.122,7.879c.566,.566,.878,1.32,.878,2.121s-.312,1.555-.879,2.122l-6.878,6.878h-4.243v-4.243l6.879-6.878c1.133-1.134,3.109-1.134,4.243,0Zm-1.122,2.121c0-.267-.104-.518-.293-.707-.378-.379-1.037-.378-1.414,0l-6.293,6.292v1.415h1.415l6.292-6.293c.189-.189,.293-.44,.293-.707Z" id="svg_1" class="selected" fill="#ffffff" fill-opacity="1"/></g></svg>