<svg xmlns="http://www.w3.org/2000/svg" width="22" height="24"><rect id="backgroundrect" width="100%" height="100%" x="0" y="0" fill="none" stroke="none"/><g class="currentLayer" style=""><title>Layer 1</title><path d="M19.13712314353893,24 a2.8,2.8 0 0 1 -1.987,-0.8350000000000002 L11.000123143538929,17.051 L4.850123143538928,23.169 a2.8,2.8 0 0 1 -3.095,0.6090000000000002 A2.8,2.8 0 0 1 0.0001231435389286162,21.154 V5 A5,5 0 0 1 5.000123143538929,0 H17.00012314353893 a5,5 0 0 1 5,5 V21.154 a2.8,2.8 0 0 1 -1.7510000000000003,2.624 A2.867,2.867 0 0 1 19.13712314353893,24 zM5.000123143538929,2 A3,3 0 0 0 2.0001231435389286,5 V21.154 a0.8430000000000002,0.8430000000000002 0 0 0 1.437,0.6000000000000002 h0 L10.30012314353893,14.933 a1,1 0 0 1 1.4100000000000001,0 l6.855,6.819 a0.8430000000000002,0.8430000000000002 0 0 0 1.437,-0.6000000000000002 V5 a3,3 0 0 0 -3,-3 z" id="svg_1" class="selected" fill="#ffffff" fill-opacity="1"/></g></svg>